<?xml version="1.0" encoding="UTF-8" standalone="no"?>
<svg width="32px" height="26px" viewBox="0 0 32 26" version="1.1" xmlns="http://www.w3.org/2000/svg" xmlns:xlink="http://www.w3.org/1999/xlink">
    <!-- Generator: Sketch 39.1 (31720) - http://www.bohemiancoding.com/sketch -->
    <title>Favorite</title>
    <desc>Created with Sketch.</desc>
    <defs></defs>
    <g id="Product" stroke="none" stroke-width="1" fill="none" fill-rule="evenodd">
        <g id="PRODUCT-6" transform="translate(-596.000000, -81.000000)" fill="#333333">
            <g id="Top-bar">
                <path d="M612.722563,84.8883927 C612.548563,85.1593927 612.289563,85.3093927 611.995563,85.3093927 C611.700563,85.3093927 611.442563,85.1603927 611.296563,84.9343927 C609.134563,81.4043927 604.573563,79.9973927 600.712563,81.7613927 C596.611563,83.6343927 594.852563,88.3763927 596.784563,92.3533927 C598.309563,95.4913927 606.894563,103.250393 610.450563,106.386393 C610.859563,106.745393 611.400563,106.966393 611.995563,106.966393 C612.586563,106.966393 613.125563,106.747393 613.533563,106.391393 C617.084563,103.261393 625.679563,95.4943927 627.206563,92.3533927 C629.139563,88.3763927 627.381563,83.6343927 623.278563,81.7613927 C619.418563,79.9973927 614.857563,81.4043927 612.722563,84.8883927 Z" id="Favorite"></path>
            </g>
        </g>
    </g>
</svg>