<?xml version="1.0" encoding="UTF-8" standalone="no"?>
<svg width="32px" height="26px" viewBox="0 0 32 26" version="1.1" xmlns="http://www.w3.org/2000/svg" xmlns:xlink="http://www.w3.org/1999/xlink">
    <!-- Generator: Sketch 39.1 (31720) - http://www.bohemiancoding.com/sketch -->
    <title>Favorite</title>
    <desc>Created with Sketch.</desc>
    <defs></defs>
    <g id="Feed" stroke="none" stroke-width="1" fill="none" fill-rule="evenodd">
        <g id="FEED-1" transform="translate(-596.000000, -81.000000)" fill="#333333">
            <g id="Top-Bar">
                <g id="Icons" transform="translate(30.000000, 78.000000)">
                    <g id="favorite" transform="translate(566.000000, 3.000000)">
                        <path class="favorite" d="M27.2785629,0.761392695 C23.4185629,-1.00260731 18.8575629,0.404392695 16.7225629,3.88839269 C16.7215629,3.88939269 16.7215629,3.88939269 16.7195629,3.89139269 C16.7145629,3.90239269 16.7085629,3.91439269 16.6995629,3.92339269 C16.6985629,3.92739269 16.6955629,3.93139269 16.6945629,3.93439269 C16.5485629,4.15939269 16.2895629,4.30939269 15.9955629,4.30939269 C15.7005629,4.30939269 15.4425629,4.16039269 15.2965629,3.93439269 C15.2935629,3.93139269 15.2925629,3.92739269 15.2895629,3.92339269 C15.2825629,3.91439269 15.2755629,3.90239269 15.2705629,3.89139269 C15.2705629,3.89039269 15.2705629,3.89039269 15.2685629,3.88839269 C13.1345629,0.404392695 8.57356292,-1.00260731 4.71256292,0.761392695 C0.611562917,2.63439269 -1.14743708,7.37639269 0.784562917,11.3533927 C2.30956292,14.4913927 10.8945629,22.2503927 14.4505629,25.3863927 L14.4535629,25.3863927 C14.8595629,25.7453927 15.4005629,25.9663927 15.9955629,25.9663927 C16.5865629,25.9663927 17.1255629,25.7473927 17.5335629,25.3913927 L17.5335629,25.3913927 C21.0845629,22.2613927 29.6795629,14.4943927 31.2065629,11.3533927 C33.1395629,7.37639269 31.3815629,2.63439269 27.2785629,0.761392695 L27.2785629,0.761392695 Z" id="Favorite"></path>
                    </g>
                </g>
            </g>
        </g>
    </g>
</svg>