<?xml version="1.0" encoding="UTF-8" standalone="no"?>
<svg width="32px" height="32px" viewBox="0 0 32 32" version="1.1" xmlns="http://www.w3.org/2000/svg" xmlns:xlink="http://www.w3.org/1999/xlink">
    <!-- Generator: Sketch 39.1 (31720) - http://www.bohemiancoding.com/sketch -->
    <title>Shape</title>
    <desc>Created with Sketch.</desc>
    <defs></defs>
    <g id="Feed" stroke="none" stroke-width="1" fill="none" fill-rule="evenodd">
        <g id="FEED-1" transform="translate(-688.000000, -78.000000)" fill="#333333">
            <g id="Top-Bar">
                <g id="Icons" transform="translate(30.000000, 78.000000)">
                    <g id="shopping" transform="translate(658.000000, 0.000000)">
                        <path class="shopping" d="M9.6,25.6 C7.84,25.6 6.4,27.04 6.4,28.8 C6.4,30.56 7.84,32 9.6,32 C11.36,32 12.8,30.56 12.8,28.8 C12.8,27.04 11.36,25.6 9.6,25.6 L9.6,25.6 Z M0,0 L0,3.2 L3.2,3.2 L8.96,15.36 L6.72,19.2 C6.56,19.68 6.4,20.32 6.4,20.8 C6.4,22.56 7.84,24 9.6,24 L28.8,24 L28.8,20.8 L10.24,20.8 C10.08,20.8 9.92,20.64 9.92,20.48 L9.92,20.32 L11.36,17.6 L23.2,17.6 C24.48,17.6 25.44,16.96 25.92,16 L31.68,5.6 C32,5.28 32,5.12 32,4.8 C32,3.84 31.36,3.2 30.4,3.2 L6.72,3.2 L5.28,0 L0,0 L0,0 Z M25.6,25.6 C23.84,25.6 22.4,27.04 22.4,28.8 C22.4,30.56 23.84,32 25.6,32 C27.36,32 28.8,30.56 28.8,28.8 C28.8,27.04 27.36,25.6 25.6,25.6 L25.6,25.6 Z" id="Shape"></path>
                    </g>
                </g>
            </g>
        </g>
    </g>
</svg>