<?xml version="1.0" encoding="UTF-8" standalone="no"?>
<!-- Created with Inkscape (http://www.inkscape.org/) -->
<svg
   xmlns:dc="http://purl.org/dc/elements/1.1/"
   xmlns:cc="http://web.resource.org/cc/"
   xmlns:rdf="http://www.w3.org/1999/02/22-rdf-syntax-ns#"
   xmlns:svg="http://www.w3.org/2000/svg"
   xmlns="http://www.w3.org/2000/svg"
   xmlns:sodipodi="http://sodipodi.sourceforge.net/DTD/sodipodi-0.dtd"
   xmlns:inkscape="http://www.inkscape.org/namespaces/inkscape"
   width="585.7926"
   height="569.61786"
   id="svg2971"
   sodipodi:version="0.32"
   inkscape:version="0.44"
   version="1.0"
   sodipodi:docbase="C:\Dokumente und Einstellungen\Andreas\Eigene Dateien\Eigene Bilder\sonstiges\Logos\Vektor\Sports"
   fill="#fff"
   sodipodi:docname="adidas_klassisches_logo.svg">
  <defs
     id="defs2973" />
  <sodipodi:namedview
     id="base"
     pagecolor="#ffffff"
     bordercolor="#666666"
     borderopacity="1.0"
     inkscape:pageopacity="0.0"
     inkscape:pageshadow="2"
     inkscape:zoom="0.35"
     inkscape:cx="350"
     inkscape:cy="468.32027"
     inkscape:document-units="px"
     inkscape:current-layer="layer1"
     inkscape:window-width="904"
     inkscape:window-height="574"
     inkscape:window-x="115"
     inkscape:window-y="115" />
  <metadata
     id="metadata2976">
    <rdf:RDF>
      <cc:Work
         rdf:about="">
        <dc:format>image/svg+xml</dc:format>
        <dc:type
           rdf:resource="http://purl.org/dc/dcmitype/StillImage" />
      </cc:Work>
    </rdf:RDF>
  </metadata>
  <g
     inkscape:label="Ebene 1"
     inkscape:groupmode="layer"
     id="layer1"
     transform="translate(-193.4319,-307.5533)">
    <g
       id="g3003"
       style="fill:white">
      <path
         d="M 735.28702,572.9887 C 731.78661,579.98969 725.50978,589.76698 719.71588,595.56101 L 255.23405,595.56101 C 251.85427,590.97413 243.76685,580.47254 240.26635,572.9887 L 735.28702,572.9887 M 700.64412,619.21965 C 694.85009,627.30699 686.15913,634.91146 676.86465,640.10201 L 296.39527,640.10201 C 288.7907,634.91146 281.30686,627.30699 274.30581,619.21965 L 700.64412,619.21965 M 648.01565,662.0707 C 606.85446,692.73034 561.83066,708.30166 527.67047,710.59496 C 527.67047,697.92075 527.67047,680.53894 531.17097,662.0707 L 648.01565,662.0707 M 778.62091,421.50103 C 782.1215,459.04103 769.9301,504.78905 746.87494,551.02001 L 575.71197,551.02001 C 581.98876,540.03557 590.19686,529.6548 599.37062,519.15321 C 649.10198,460.85167 725.50978,424.8808 778.62091,421.50103 M 446.67589,710.59496 C 413.72276,708.30166 368.57823,692.73034 327.05492,662.0707 L 444.98598,662.0707 C 447.27942,680.53894 447.27942,697.92075 446.67589,710.59496 M 487.71634,714.09555 C 474.43856,701.4213 462.85064,684.03939 450.77991,662.0707 L 524.16997,662.0707 C 512.58205,684.03939 499.90779,701.4213 487.71634,714.09555 M 400.44497,551.02001 L 228.67848,551.02001 C 205.50264,504.78905 194.03544,459.04103 197.41526,421.50103 C 250.04364,424.8808 327.05492,460.85167 376.78633,519.15321 C 385.35656,529.6548 394.04746,540.03557 400.44497,551.02001 M 561.83066,551.02001 L 413.72276,551.02001 C 411.42932,537.74213 411.42932,524.94724 411.42932,509.97941 C 411.42932,428.98487 447.27942,345.09328 487.71634,307.55327 C 527.67047,345.09328 564.12409,428.98487 564.12409,509.97941 C 564.12409,524.94724 562.91699,537.74213 561.83066,551.02001"
         style="fill:white;fill-rule:nonzero;stroke:none"
         id="path2425" />
      <path
         style="fill:white;fill-rule:evenodd;stroke:none"
         d="M 765.9467,743.54809 C 772.9477,743.54809 778.62091,749.34207 778.62091,756.9466 C 778.62091,763.82696 772.9477,769.62094 765.9467,769.62094 C 758.94566,769.62094 753.27245,763.82696 753.27245,756.9466 C 753.27245,749.34207 758.94566,743.54809 765.9467,743.54809 z M 765.9467,745.35868 C 759.54919,745.35868 754.96241,750.54922 754.96241,756.9466 C 754.96241,762.74063 759.54919,767.93103 765.9467,767.93103 C 771.74073,767.93103 776.9311,762.74063 776.9311,756.9466 C 776.9311,750.54922 771.74073,745.35868 765.9467,745.35868 z M 768.84363,756.9466 C 769.44725,756.9466 771.13707,757.42945 771.13707,759.84366 L 771.13707,763.82696 L 768.84363,763.82696 L 768.84363,762.13714 C 768.84363,759.24004 768.24014,758.03307 766.55019,758.03307 L 763.65327,758.03307 L 763.65327,763.82696 L 761.35978,763.82696 L 761.35978,749.34207 L 765.9467,749.34207 C 768.84363,749.34207 771.13707,751.15271 771.13707,753.44615 C 771.13707,755.13596 769.9301,756.9466 768.84363,756.9466 z M 763.65327,751.75619 L 763.65327,755.73963 L 765.9467,755.73963 C 767.03313,755.73963 768.84363,755.13596 768.84363,754.04967 C 768.84363,752.84252 767.63666,751.75619 766.55019,751.75619 L 763.65327,751.75619"
         class="ps01"
         id="path2447" />
      <path
         style="fill:white;fill-rule:nonzero;stroke:none"
         d="M 734.68353,877.1711 C 758.94566,877.1711 779.22453,867.39381 779.22453,843.13168 C 779.22453,829.25032 769.44725,819.95584 753.7553,815.85181 C 737.5805,811.86851 716.81878,812.47204 716.81878,801.97045 C 717.90525,795.09009 724.30262,793.27959 734.08005,793.27959 C 749.16838,793.27959 749.77191,801.36692 750.37553,806.67801 L 775.24114,806.67801 C 773.43055,787.60624 757.85937,774.20787 732.99358,774.20787 C 706.92081,774.20787 691.95316,788.08909 691.95316,806.07452 C 691.95316,816.45543 697.14353,825.74987 705.83452,830.33665 C 712.11122,833.23371 720.80217,835.52715 731.30376,837.33765 C 742.16738,838.42412 752.06534,839.63109 752.66897,847.11507 C 752.66897,852.30548 747.47847,858.703 735.89055,858.703 C 719.11222,858.703 715.61181,849.40838 715.61181,843.13168 L 689.65972,843.13168 C 690.14253,863.28974 706.92081,877.1711 734.68353,877.1711"
         class="ps00"
         id="path2449" />
      <path
         style="fill:white;fill-rule:evenodd;stroke:none"
         d="M 625.92628,877.1711 C 637.03125,877.1711 646.80863,873.67064 654.89601,868.48028 L 654.89601,874.87766 L 679.76176,874.87766 L 679.76176,775.41484 L 654.89601,775.41484 L 654.89601,782.89868 C 646.80863,777.10479 637.03125,774.20787 625.92628,774.20787 C 597.68071,774.20787 573.90138,796.78004 573.90138,825.74987 C 573.90138,854.11607 597.68071,877.1711 625.92628,877.1711 z M 598.28423,825.74987 C 598.28423,810.05792 611.56207,796.78004 627.13329,796.78004 C 642.22175,796.78004 654.89601,810.05792 654.89601,825.74987 C 654.89601,840.71756 642.22175,854.11607 627.13329,854.11607 C 611.56207,854.11607 598.28423,840.71756 598.28423,825.74987"
         class="ps01"
         id="path2451" />
      <path
         style="fill:white;fill-rule:evenodd;stroke:none"
         d="M 541.55183,741.25474 L 541.55183,782.89868 C 532.86088,777.10479 523.08359,774.20787 512.09924,774.20787 C 483.733,774.20787 460.5572,796.78004 460.5572,825.74987 C 460.5572,854.11607 483.733,877.1711 512.09924,877.1711 C 523.08359,877.1711 533.46441,873.67064 541.55183,868.48028 L 541.55183,874.87766 L 565.814,874.87766 L 565.814,741.25474 L 541.55183,741.25474 z M 484.33652,825.74987 C 484.33652,810.05792 497.61436,796.78004 512.58205,796.78004 C 528.274,796.78004 541.55183,810.05792 541.55183,825.74987 C 541.55183,840.71756 528.274,854.11607 512.58205,854.11607 C 497.61436,854.11607 484.33652,840.71756 484.33652,825.74987"
         class="ps01"
         id="path2453" />
      <path
         style="fill:white;fill-rule:evenodd;stroke:none"
         d="M 425.91421,874.87766 L 450.17638,874.87766 L 450.17638,775.41484 L 425.91421,775.41484 L 425.91421,874.87766 z M 425.91421,766.1204 L 450.17638,766.1204 L 450.17638,741.25474 L 425.91421,741.25474 L 425.91421,766.1204"
         class="ps01"
         id="path2455" />
      <path
         style="fill:white;fill-rule:evenodd;stroke:none"
         d="M 359.40447,877.1711 C 370.38881,877.1711 380.16615,873.67064 388.85705,868.48028 L 388.85705,874.87766 L 413.72276,874.87766 L 413.72276,741.25474 L 388.85705,741.25474 L 388.85705,782.89868 C 380.16615,777.10479 370.38881,774.20787 359.40447,774.20787 C 331.03827,774.20787 307.37962,796.78004 307.37962,825.74987 C 307.37962,854.11607 331.03827,877.1711 359.40447,877.1711 z M 331.03827,825.74987 C 331.03827,810.05792 344.31605,796.78004 360.49085,796.78004 C 375.57927,796.78004 388.85705,810.05792 388.85705,825.74987 C 388.85705,840.71756 375.57927,854.11607 360.49085,854.11607 C 344.31605,854.11607 331.03827,840.71756 331.03827,825.74987"
         class="ps01"
         id="path2457" />
      <path
         style="fill:white;fill-rule:evenodd;stroke:none"
         d="M 244.85323,877.1711 C 256.44115,877.1711 266.21844,873.67064 274.90934,868.48028 L 274.90934,874.87766 L 299.17152,874.87766 L 299.17152,775.41484 L 274.90934,775.41484 L 274.90934,782.89868 C 266.21844,777.10479 255.83762,774.20787 244.85323,774.20787 C 216.48703,774.20787 193.43191,796.78004 193.43191,825.74987 C 193.43191,854.11607 216.48703,877.1711 244.85323,877.1711 z M 217.09056,825.74987 C 217.09056,810.05792 230.36834,796.78004 245.45676,796.78004 C 261.63156,796.78004 274.90934,810.05792 274.90934,825.74987 C 274.90934,840.71756 261.63156,854.11607 245.45676,854.11607 C 230.36834,854.11607 217.09056,840.71756 217.09056,825.74987"
         class="ps01"
         id="path2459" />
    </g>
  </g>
</svg>
