<?xml version="1.0" encoding="UTF-8" standalone="no"?>
<svg width="32px" height="32px" viewBox="0 0 32 32" version="1.1" xmlns="http://www.w3.org/2000/svg" xmlns:xlink="http://www.w3.org/1999/xlink">
    <!-- Generator: Sketch 39.1 (31720) - http://www.bohemiancoding.com/sketch -->
    <title>Shape</title>
    <desc>Created with Sketch.</desc>
    <defs></defs>
    <g id="Feed" stroke="none" stroke-width="1" fill="none" fill-rule="evenodd">
        <g id="FEED-1" transform="translate(-30.000000, -78.000000)" fill="#333333">
            <g id="Top-Bar">
                <g id="Icons" transform="translate(30.000000, 78.000000)">
                    <g id="dialpad">
                        <path class="dialpad" d="M4,0 C1.8,0 0,1.8 0,4 C0,6.2 1.8,8 4,8 C6.2,8 8,6.2 8,4 C8,1.8 6.2,0 4,0 L4,0 Z M4,12 C1.8,12 0,13.8 0,16 C0,18.2 1.8,20 4,20 C6.2,20 8,18.2 8,16 C8,13.8 6.2,12 4,12 L4,12 Z M4,24 C1.8,24 0,25.8 0,28 C0,30.2 1.8,32 4,32 C6.2,32 8,30.2 8,28 C8,25.8 6.2,24 4,24 L4,24 Z M28,8 C30.2,8 32,6.2 32,4 C32,1.8 30.2,0 28,0 C25.8,0 24,1.8 24,4 C24,6.2 25.8,8 28,8 L28,8 Z M16,24 C13.8,24 12,25.8 12,28 C12,30.2 13.8,32 16,32 C18.2,32 20,30.2 20,28 C20,25.8 18.2,24 16,24 L16,24 Z M28,24 C25.8,24 24,25.8 24,28 C24,30.2 25.8,32 28,32 C30.2,32 32,30.2 32,28 C32,25.8 30.2,24 28,24 L28,24 Z M28,12 C25.8,12 24,13.8 24,16 C24,18.2 25.8,20 28,20 C30.2,20 32,18.2 32,16 C32,13.8 30.2,12 28,12 L28,12 Z M16,12 C13.8,12 12,13.8 12,16 C12,18.2 13.8,20 16,20 C18.2,20 20,18.2 20,16 C20,13.8 18.2,12 16,12 L16,12 Z M16,0 C13.8,0 12,1.8 12,4 C12,6.2 13.8,8 16,8 C18.2,8 20,6.2 20,4 C20,1.8 18.2,0 16,0 L16,0 Z" id="Shape"></path>
                    </g>
                </g>
            </g>
        </g>
    </g>
</svg>